<?xml version="1.0" standalone="no"?>
<!DOCTYPE svg PUBLIC "-//W3C//DTD SVG 20010904//EN"
 "http://www.w3.org/TR/2001/REC-SVG-20010904/DTD/svg10.dtd">
<svg version="1.0" xmlns="http://www.w3.org/2000/svg"
 width="801.000000pt" height="518.000000pt" viewBox="0 0 801.000000 518.000000"
 preserveAspectRatio="xMidYMid meet">

<g transform="translate(0.000000,518.000000) scale(0.100000,-0.100000)"
fill="#000000" stroke="none">
<path d="M0 2590 l0 -2590 4005 0 4005 0 0 2590 0 2590 -4005 0 -4005 0 0
-2590z m3945 1661 c36 -16 115 -91 115 -109 0 -4 20 -8 44 -9 24 -1 57 -8 73
-17 31 -15 93 -80 93 -95 0 -5 19 -12 43 -15 60 -9 116 -44 152 -94 26 -39 30
-52 30 -112 0 -60 -4 -74 -30 -112 -26 -36 -30 -50 -27 -90 l4 -46 107 -4
c100 -3 110 -5 144 -31 20 -15 49 -49 64 -75 l28 -47 0 -275 0 -275 -28 -47
c-15 -26 -44 -60 -64 -75 -34 -26 -44 -28 -145 -31 l-108 -4 0 -46 c-1 -92
-64 -185 -155 -228 -49 -23 -54 -24 -371 -24 -357 0 -379 3 -451 65 -22 19
-51 58 -64 87 l-24 53 -3 474 -3 474 -38 43 c-91 104 -76 269 33 361 26 22 33
36 34 65 2 49 22 87 67 126 43 39 69 46 143 40 50 -4 59 -2 74 18 51 64 182
92 263 55z m1473 -2223 l54 -20 -7 -37 c-16 -93 -25 -111 -51 -111 -16 0 -28
8 -36 25 -20 45 -121 50 -183 9 -39 -25 -76 -96 -78 -148 -2 -58 22 -86 73
-86 32 0 38 4 42 25 5 23 2 25 -34 25 -43 0 -41 -6 -17 93 l10 37 119 0 120 0
-1 -27 c-1 -16 -13 -75 -27 -133 l-27 -105 -55 -16 c-169 -52 -297 -23 -349
78 -6 12 -11 50 -11 85 0 49 7 77 29 124 86 183 246 250 429 182z m-2978 -35
c7 -32 15 -73 19 -92 l6 -34 60 91 60 92 93 0 c91 0 92 0 87 -22 -3 -13 -30
-126 -59 -253 l-53 -230 -86 -3 c-98 -3 -95 -7 -72 78 19 72 19 92 -3 58 -15
-26 -22 -28 -78 -28 -61 0 -62 0 -69 33 -6 29 -9 24 -28 -55 l-20 -88 -84 0
c-45 0 -83 4 -83 8 0 15 110 484 116 493 3 5 45 9 94 9 l89 0 11 -57z m566 5
c9 -29 19 -57 21 -61 3 -5 25 19 50 52 l45 61 94 0 94 0 -116 -145 -117 -146
-26 -107 -26 -107 -88 -3 c-81 -3 -88 -1 -83 15 3 10 14 57 25 105 l20 87 -49
141 c-28 78 -50 145 -50 151 0 5 42 9 94 9 l94 0 18 -52z m684 40 c0 -7 -6
-35 -13 -63 l-13 -50 -97 -3 c-96 -3 -97 -3 -97 -27 0 -25 1 -25 84 -25 l83 0
-15 -65 -16 -65 -87 0 -87 0 -23 -97 -24 -98 -88 -3 c-81 -3 -88 -1 -83 15 3
10 28 119 56 243 28 124 53 231 55 238 3 9 49 12 185 12 137 0 180 -3 180 -12z
m335 1 c64 -16 95 -48 95 -98 0 -56 -13 -85 -65 -140 l-46 -49 57 -106 56
-106 -104 0 -104 0 -40 82 -40 81 -18 -81 -18 -82 -84 0 c-76 0 -84 2 -84 19
0 16 94 445 105 479 6 16 227 17 290 1z m395 4 c0 -4 -26 -119 -57 -255 l-56
-248 -89 0 c-80 0 -89 2 -84 18 2 9 28 118 56 242 28 124 53 231 55 238 5 13
175 18 175 5z m433 -22 c99 -61 110 -211 25 -337 -71 -104 -168 -144 -355
-144 -98 0 -113 2 -113 16 0 15 94 436 106 477 5 17 17 19 152 15 134 -3 150
-5 185 -27z m1077 17 c0 -7 -6 -35 -13 -63 l-13 -50 -94 -3 c-88 -3 -109 -9
-110 -34 0 -5 41 -8 91 -8 81 0 90 -2 85 -17 -3 -10 -10 -39 -17 -65 l-11 -48
-89 0 c-89 0 -89 0 -95 -27 -3 -16 -7 -34 -10 -40 -2 -10 20 -13 93 -13 l96 0
-7 -39 c-3 -22 -10 -51 -16 -65 l-10 -26 -180 0 c-99 0 -180 3 -180 8 0 4 26
118 57 255 l57 247 183 0 c140 0 183 -3 183 -12z m-3342 -840 l3 -118 75 0 75
0 -3 -37 -3 -38 -112 -3 -113 -3 0 161 0 161 38 -3 37 -3 3 -117z m492 94 c63
-47 83 -145 44 -213 -22 -39 -93 -79 -138 -79 -51 0 -114 38 -136 81 -62 120
24 249 155 235 27 -3 61 -14 75 -24z m412 -122 c32 -79 58 -150 58 -157 0 -8
-13 -13 -36 -13 -31 0 -37 4 -50 35 -14 34 -16 35 -67 35 -51 0 -54 -2 -68
-32 -12 -28 -20 -34 -51 -36 -27 -2 -38 1 -38 10 0 8 21 65 46 128 80 200 69
182 111 178 l37 -3 58 -145z m361 123 c65 -39 89 -154 45 -219 -35 -52 -69
-66 -161 -67 l-82 -2 -3 145 c-1 79 0 151 3 159 8 20 156 8 198 -16z m262
-133 l0 -155 -37 -3 -38 -3 0 161 0 161 38 -3 37 -3 0 -155z m255 75 l55 -84
5 82 5 82 38 3 37 3 0 -160 0 -161 -35 0 c-33 0 -38 5 -92 87 l-58 86 -5 -84
-5 -84 -37 -3 -38 -3 0 160 0 161 38 0 c35 0 39 -4 92 -85z m493 79 c35 -6 37
-9 37 -44 l0 -37 -74 5 c-92 6 -116 -11 -116 -82 0 -54 24 -76 82 -76 31 0 38
4 38 20 0 16 -7 20 -30 20 -28 0 -30 2 -30 40 l0 40 70 0 70 0 0 -89 0 -89
-50 -11 c-74 -16 -100 -14 -150 12 -53 26 -80 72 -80 135 0 113 97 178 233
156z m249 -249 c10 -22 9 -29 -10 -47 -18 -19 -25 -20 -47 -10 -44 20 -28 82
22 82 15 0 27 -9 35 -25z m217 3 c17 -43 -31 -85 -64 -58 -18 15 -19 52 -3 68
20 20 58 14 67 -10z m209 10 c18 -18 14 -56 -7 -68 -29 -15 -39 -13 -56 14
-13 19 -14 29 -5 45 12 23 49 28 68 9z"/>
<path d="M3775 4201 c-23 -10 -55 -35 -72 -57 -29 -36 -32 -37 -57 -26 -38 17
-103 15 -136 -4 -40 -24 -60 -65 -60 -123 0 -45 -3 -52 -27 -65 -61 -31 -103
-108 -103 -185 0 -45 29 -108 63 -140 15 -13 31 -39 37 -57 17 -51 63 -84 117
-84 38 0 50 5 77 33 17 18 36 41 41 50 8 16 15 17 38 8 16 -6 43 -11 60 -11
33 0 96 32 110 56 11 19 42 18 58 -3 8 -9 32 -24 54 -34 79 -36 176 -18 238
44 31 31 48 40 81 42 94 6 151 65 151 155 0 42 -6 63 -24 89 -28 39 -91 70
-143 71 -32 0 -39 5 -60 42 -35 62 -67 82 -133 80 -53 -1 -56 0 -69 31 -39 92
-146 132 -241 88z"/>
<path d="M4323 3597 l-42 -10 -3 -457 c-3 -434 -4 -459 -22 -479 -27 -30 -70
-27 -95 5 -20 26 -21 37 -21 433 l0 406 -80 0 -79 0 -3 -405 c-3 -369 -5 -408
-21 -433 -24 -36 -68 -37 -96 -1 -20 26 -21 37 -21 440 l0 413 -31 -11 c-17
-6 -52 -8 -79 -6 -42 4 -50 2 -59 -16 -7 -14 -12 -158 -13 -406 -3 -350 -5
-388 -21 -413 -12 -19 -26 -27 -45 -27 -70 1 -72 10 -72 417 l0 358 -32 11
c-18 6 -41 15 -51 19 -17 7 -18 -11 -15 -412 l3 -419 26 -49 c15 -30 42 -62
68 -80 l43 -30 318 -3 c350 -3 379 0 437 51 74 65 73 51 73 615 0 396 -3 502
-12 501 -7 -1 -32 -6 -55 -12z"/>
<path d="M3890 3124 c0 -246 4 -435 10 -444 24 -38 30 51 30 439 0 385 -1 398
-20 416 -20 18 -20 17 -20 -411z"/>
<path d="M4201 3526 c-8 -9 -10 -130 -9 -427 3 -360 5 -414 18 -414 13 0 15
55 18 428 1 244 -2 427 -7 427 -5 0 -14 -6 -20 -14z"/>
<path d="M4440 3481 c0 -16 10 -19 69 -23 84 -6 120 -29 153 -96 22 -44 23
-58 23 -232 0 -211 -10 -256 -71 -310 -32 -27 -41 -30 -104 -30 -69 0 -70 -1
-70 -26 l0 -26 106 4 106 3 33 37 c49 58 55 92 55 338 0 251 -6 284 -61 342
l-36 38 -101 0 c-93 0 -102 -2 -102 -19z"/>
<path d="M3583 3413 c-10 -4 -13 -87 -13 -369 0 -317 2 -364 15 -364 13 0 15
48 15 370 0 204 -1 370 -2 369 -2 0 -9 -3 -15 -6z"/>
<path d="M4440 3125 l0 -285 64 0 c59 0 66 2 89 30 38 44 50 122 45 289 -3
125 -7 152 -25 187 -25 48 -57 64 -123 64 l-50 0 0 -285z"/>
<path d="M3875 1884 c-8 -45 -1 -52 33 -33 45 25 39 68 -9 69 -11 0 -19 -12
-24 -36z"/>
<path d="M4665 1908 c-14 -40 -54 -232 -50 -237 3 -3 25 1 48 9 34 12 46 24
64 60 13 25 26 66 29 91 5 39 3 50 -15 68 -23 23 -69 28 -76 9z"/>
<path d="M2930 1220 c-13 -13 -20 -33 -20 -60 0 -53 27 -80 78 -80 50 0 77 28
77 80 0 52 -27 80 -77 80 -25 0 -45 -7 -58 -20z"/>
<path d="M3387 1198 c-4 -14 -10 -33 -13 -42 -5 -12 0 -16 20 -16 29 0 31 11
12 55 l-13 30 -6 -27z"/>
<path d="M3730 1160 l0 -80 33 0 c18 0 41 6 50 13 26 19 37 69 22 104 -14 33
-32 43 -76 43 l-29 0 0 -80z"/>
</g>
</svg>
